# xmcd
#
# Track frame offsets: 
#        150
#        14555
#        46722
#        57400
#        72135
#        83762
#        101957
#        133195
#        155635
#        181385
#        193167
#        199485
#        220032
#        231245
#        246240
#        253160
#        257980
#        268825
#
# Disc length: 3848 seconds
#
# Revision: 1
# Processed by: cddbd v1.5.2PL0 Copyright (c) Steve Scherf et al.
# Submitted via: ExactAudioCopy v0.99pb4
#
DISCID=1a0f0612
DTITLE=Marian McPartland and Dave Brubeck - Marian McPartland's Piano 
DTITLE=Jazz With Guest Dave Brubeck
DYEAR=1900
DGENRE=Jazz
TTITLE0=Conversation With Dave Brubeck And Marian McPartland
TTITLE1=St. Louis Blues
TTITLE2=Conversation
TTITLE3=Thank You (Solo/Dave)
TTITLE4=Conversation
TTITLE5=The Duke (Duet)
TTITLE6=Conversation
TTITLE7=In Your Own Sweet Way (Duet)
TTITLE8=Conversation
TTITLE9=One Moment Worth Years (Duet)
TTITLE10=Conversation
TTITLE11=Summer Song (Solo/Mary McPartland)
TTITLE12=Conversation
TTITLE13=Free Piece (Duet)
TTITLE14=Conversation
TTITLE15=Polytonal Blues (Solo/Dave)
TTITLE16=Conversation
TTITLE17=Take Five (Duet)
EXTD=
EXTT0=
EXTT1=
EXTT2=
EXTT3=
EXTT4=
EXTT5=
EXTT6=
EXTT7=
EXTT8=
EXTT9=
EXTT10=
EXTT11=
EXTT12=
EXTT13=
EXTT14=
EXTT15=
EXTT16=
EXTT17=
PLAYORDER=
